/* XPM */
static const char *const bookgo_xpm[] = {
/* width height num_colors chars_per_pixel */
"16 16 216 2",
/* colors */
"`` c None",
"`. c #e0e6ee",
"`# c #6884ac",
"`a c #738eb3",
"`b c #4b6c9d",
"`c c #4a6c9c",
"`d c #496b9c",
"`e c #496a9b",
"`f c #486a9b",
"`g c #47699a",
"`h c #466899",
"`i c #456798",
"`j c #436493",
"`k c #567193",
"`l c #99abc7",
"`m c #4b6d9d",
"`n c #7897bb",
"`o c #6282ac",
"`p c #6181ac",
"`q c #6080ab",
"`r c #5f7fab",
"`s c #5e7faa",
"`t c #5d7ea8",
"`u c #5c7ca8",
"`v c #4c6d9d",
"`w c #436697",
"`x c #3c5c88",
"`y c #6c88af",
"`z c #7897ba",
"`A c #b9c5d8",
"`B c #d7dee8",
"`C c #d6dde7",
"`D c #d6dce6",
"`E c #d4dbe4",
"`F c #d3dae3",
"`G c #d1d8e2",
"`H c #d0d7e1",
"`I c #e5e7eb",
"`J c #efefef",
"`K c #2a3e57",
"`L c #607da8",
"`M c #a5c2d9",
"`N c #7091b5",
"`O c #5f80ab",
"`P c #5e7ea9",
"`Q c #5c7da8",
"`R c #5b7ca8",
"`S c #5a7ba7",
"`T c #5979a6",
"`U c #416496",
"`V c #5f7ca7",
"`W c #a9c8dd",
"`X c #95bdd4",
"`Y c #b9d4e6",
"`Z c #b6d1e6",
"`0 c #b5d0e4",
"`1 c #b3cee3",
"`2 c #b0cbe2",
"`3 c #adc9e0",
"`4 c #a9c7df",
"`5 c #a0bfda",
"`6 c #4a6b9a",
"`7 c #5e7ba6",
"`8 c #a6c5db",
".` c #76a7c6",
".. c #9bbfd9",
".# c #93b7d1",
".a c #8eb0cb",
".b c #8aaeca",
".c c #87abc8",
".d c #83abcb",
".e c #87b0d1",
".f c #9bbbd8",
".g c #486a99",
".h c #5d7ba6",
".i c #a4c2d9",
".j c #72a4c1",
".k c #94b8d2",
".l c #e4edf5",
".m c #e2ecf4",
".n c #e1ecf4",
".o c #e0ebf4",
".p c #dfeaf3",
".q c #7fa9cb",
".r c #96b8d6",
".s c #476999",
".t c #5c7aa5",
".u c #9fbfd7",
".v c #6f9fbd",
".w c #90b5d4",
".x c #88adcb",
".y c #81a8c7",
".z c #7da5c6",
".A c #7aa1c4",
".B c #76a1c5",
".C c #6ca33d",
".D c #659f31",
".E c #476a94",
".F c #5b79a5",
".G c #9bbbd5",
".H c #699ab8",
".I c #8ab3d4",
".J c #87afd2",
".K c #82add0",
".L c #7daacf",
".M c #78a6cd",
".N c #74a4cb",
".O c #649f37",
".P c #81b35a",
".Q c #579828",
".R c #2b4155",
".S c #5a78a5",
".T c #96b7d2",
".U c #6592b4",
".V c #83aed1",
".W c #7fabcf",
".X c #6fa53d",
".Y c #6da338",
".Z c #67a134",
".0 c #619d30",
".1 c #7caf55",
".2 c #aacb91",
".3 c #74ab4f",
".4 c #458e18",
".5 c #f5f9f3",
".6 c #5a78a4",
".7 c #92b4d0",
".8 c #608baf",
"#` c #7ca9ce",
"#. c #77a6cc",
"## c #6ba337",
"#a c #b0ce96",
"#b c #adcd94",
"#c c #a8cb90",
"#d c #90bc74",
"#e c #a1c78a",
"#f c #68a546",
"#g c #368708",
"#h c #f2f7f0",
"#i c #5977a3",
"#j c #8eb0ce",
"#k c #5b85aa",
"#l c #75a4cb",
"#m c #71a2ca",
"#n c #639f31",
"#o c #8eba6f",
"#p c #89b86b",
"#q c #85b666",
"#r c #80b361",
"#s c #82b567",
"#t c #98c283",
"#u c #5ca03c",
"#v c #278003",
"#w c #5776a2",
"#x c #88accb",
"#y c #577ea6",
"#z c #6e9fc9",
"#A c #699dc7",
"#B c #5b9b29",
"#C c #a9ca90",
"#D c #a5c88d",
"#E c #a1c68a",
"#F c #9ec588",
"#G c #85b66a",
"#H c #97c282",
"#I c #66a548",
"#J c #338715",
"#K c #d4e5cf",
"#L c #5675a2",
"#M c #85a9ca",
"#N c #5478a3",
"#O c #679ac6",
"#P c #6298c4",
"#Q c #519722",
"#R c #49911c",
"#S c #438f16",
"#T c #3b8b10",
"#U c #5e9f3a",
"#V c #96c180",
"#W c #62a346",
"#X c #227909",
"#Y c #d9e8d5",
"#Z c #5574a1",
"#0 c #85abcc",
"#1 c #89afd1",
"#2 c #88b0d2",
"#3 c #85add1",
"#4 c #81aad0",
"#5 c #7fa7cf",
"#6 c #7ba4ce",
"#7 c #7aa1cd",
"#8 c #2e8409",
"a` c #5fa143",
"a. c #227810",
"a# c #657d79",
"aa c #889ebd",
"ab c #3d6094",
"ac c #3c6093",
"ad c #3b5f92",
"ae c #3a5e92",
"af c #395d91",
"ag c #385d90",
"ah c #385c90",
"ai c #375b8f",
"aj c #227c06",
"ak c #1e7b03",
"al c #668999",
"am c #000000",
"an c #000000",
"ao c #000000",
"ap c #000000",
"aq c #000000",
"ar c #000000",
"as c #000000",
"at c #000000",
"au c #000000",
/* pixels */
"```.`#`a`b`c`d`e`f`g`h`i`j`k````",
"```l`m`n`o`p`q`r`s`t`u`v`w`x````",
"```y`z`A`B`C`D`E`F`G`H`I`J`K````",
"```L`M`N`O`P`P`Q`R`S`T`d`U`K````",
"```V`W`X`Y`Z`0`1`2`3`4`5`6`K````",
"```7`8.`...#.a.b.c.d.e.f.g`K````",
"``.h.i.j.k.l.m.n.o.p.q.r.s`K````",
"``.t.u.v.w.x.y.z.A.B.C.D.E`K````",
"``.F.G.H.I.J.K.L.M.N.O.P.Q.R````",
"``.S.T.U.V.W.X.Y.Z.0.1.2.3.4.5``",
"``.6.7.8#`#.###a#b.2#c#d#e#f#g#h",
"``#i#j#k#l#m#n#b#o#p#q#r#s#t#u#v",
"``#w#x#y#z#A#B#C#D#E#F#G#H#I#J#K",
"``#L#M#N#O#P#Q#R#S#T#U#V#W#X#Y``",
"``#Z#0#1#2#3#4#5#6#7#8a`a.a#````",
"``aaabacadaeafagahaiajakal``````"
};
