/* XPM */
static const char *const bookedit_xpm[] = {
/* width height num_colors chars_per_pixel */
"16 16 211 2",
/* colors */
"`` c None",
"`. c #e0e6ee",
"`# c #6884ac",
"`a c #738eb3",
"`b c #4b6c9d",
"`c c #4a6c9c",
"`d c #496b9c",
"`e c #496a9b",
"`f c #486a9b",
"`g c #47699a",
"`h c #466899",
"`i c #456798",
"`j c #436493",
"`k c #567193",
"`l c #99abc7",
"`m c #4b6d9d",
"`n c #7897bb",
"`o c #6282ac",
"`p c #6181ac",
"`q c #6080ab",
"`r c #5f7fab",
"`s c #5e7faa",
"`t c #5d7ea8",
"`u c #5c7ca8",
"`v c #4c6d9d",
"`w c #436697",
"`x c #3c5c88",
"`y c #6c88af",
"`z c #7897ba",
"`A c #b9c5d8",
"`B c #d7dee8",
"`C c #d6dde7",
"`D c #d6dce6",
"`E c #d4dbe4",
"`F c #d3dae3",
"`G c #d1d8e2",
"`H c #d0d7e1",
"`I c #e5e7eb",
"`J c #efefef",
"`K c #2a3e57",
"`L c #607da8",
"`M c #a5c2d9",
"`N c #7091b5",
"`O c #5f80ab",
"`P c #5e7ea9",
"`Q c #5c7da8",
"`R c #5b7ca8",
"`S c #5a7ba7",
"`T c #5979a6",
"`U c #416496",
"`V c #5f7ca7",
"`W c #a9c8dd",
"`X c #95bdd4",
"`Y c #b9d4e6",
"`Z c #b6d1e6",
"`0 c #b5d0e4",
"`1 c #b3cee3",
"`2 c #b0cbe2",
"`3 c #adc9e0",
"`4 c #a9c7df",
"`5 c #a0bfda",
"`6 c #4a6b9a",
"`7 c #5e7ba6",
"`8 c #a6c5db",
".` c #76a7c6",
".. c #9bbfd9",
".# c #93b7d1",
".a c #8eb0cb",
".b c #8aaeca",
".c c #87abc8",
".d c #83abcb",
".e c #87b0d1",
".f c #b1b7a2",
".g c #d8a558",
".h c #dbb185",
".i c #d09d46",
".j c #eed7b0",
".k c #5d7ba6",
".l c #a4c2d9",
".m c #72a4c1",
".n c #94b8d2",
".o c #e4edf5",
".p c #e2ecf4",
".q c #e1ecf4",
".r c #e0ebf4",
".s c #dfeaf3",
".t c #a2ae8f",
".u c #e7be77",
".v c #f0d2b4",
".w c #fff3e5",
".x c #efd2ac",
".y c #cc9658",
".z c #5c7aa5",
".A c #9fbfd7",
".B c #6f9fbd",
".C c #90b5d4",
".D c #88adcb",
".E c #81a8c7",
".F c #7da5c6",
".G c #7aa1c4",
".H c #9aa88f",
".I c #ebd480",
".J c #f9e3b2",
".K c #e7c08b",
".L c #f6d3ae",
".M c #fce0c4",
".N c #d4a26a",
".O c #5b79a5",
".P c #9bbbd5",
".Q c #699ab8",
".R c #8ab3d4",
".S c #87afd2",
".T c #82add0",
".U c #7daacf",
".V c #96ab9d",
".W c #edd47d",
".X c #fdf6c4",
".Y c #f6dd6c",
".Z c #edca6d",
".0 c #d7a363",
".1 c #d5a269",
".2 c #f7eee5",
".3 c #5a78a5",
".4 c #96b7d2",
".5 c #6592b4",
".6 c #83aed1",
".7 c #7fabcf",
".8 c #7aa8cd",
"#` c #93a89a",
"#. c #eed379",
"## c #fdf7c7",
"#a c #f5dc5f",
"#b c #f7e25b",
"#c c #f2d67a",
"#d c #cf9142",
"#e c #f5e9db",
"#f c #5a78a4",
"#g c #92b4d0",
"#h c #608baf",
"#i c #7ca9ce",
"#j c #77a6cc",
"#k c #8b998f",
"#l c #e7cb77",
"#m c #f5dc5e",
"#n c #f7e15a",
"#o c #f1d47b",
"#p c #d49346",
"#q c #4e4e50",
"#r c #5977a3",
"#s c #8eb0ce",
"#t c #5b85aa",
"#u c #75a4cb",
"#v c #879890",
"#w c #d3b775",
"#x c #fdf6c2",
"#y c #f7df63",
"#z c #f8e25d",
"#A c #f0d379",
"#B c #d89648",
"#C c #546888",
"#D c #5776a2",
"#E c #88accb",
"#F c #577ea6",
"#G c #808a86",
"#H c #d5b67a",
"#I c #d1b790",
"#J c #e4c955",
"#K c #f5df5b",
"#L c #edd078",
"#M c #cf934c",
"#N c #859eb7",
"#O c #406294",
"#P c #5675a2",
"#Q c #85a9ca",
"#R c #5478a3",
"#S c #aa8943",
"#T c #fff2e0",
"#U c #d89a54",
"#V c #be7a1a",
"#W c #c59849",
"#X c #b68342",
"#Y c #6b88a8",
"#Z c #759dc9",
"#0 c #3f6293",
"#1 c #415269",
"#2 c #5574a1",
"#3 c #85abcc",
"#4 c #89afd1",
"#5 c #83662e",
"#6 c #f9c794",
"#7 c #f9c991",
"#8 c #c98541",
"a` c #a86724",
"a. c #869ab0",
"a# c #779fcb",
"aa c #7199c7",
"ab c #3e6193",
"ac c #727e8f",
"ad c #889ebd",
"ae c #3d6094",
"af c #3c6093",
"ag c #543e15",
"ah c #865f2a",
"ai c #bb874a",
"aj c #9c8155",
"ak c #486083",
"al c #375b8f",
"am c #365a8f",
"an c #355a8e",
"ao c #728bb0",
"ap c #000000",
/* pixels */
"```.`#`a`b`c`d`e`f`g`h`i`j`k````",
"```l`m`n`o`p`q`r`s`t`u`v`w`x````",
"```y`z`A`B`C`D`E`F`G`H`I`J`K````",
"```L`M`N`O`P`P`Q`R`S`T`d`U`K````",
"```V`W`X`Y`Z`0`1`2`3`4`5`6`K````",
"```7`8.`...#.a.b.c.d.e.f.g.h.i.j",
"``.k.l.m.n.o.p.q.r.s.t.u.v.w.x.y",
"``.z.A.B.C.D.E.F.G.H.I.J.K.L.M.N",
"``.O.P.Q.R.S.T.U.V.W.X.Y.Z.0.1.2",
"``.3.4.5.6.7.8#`#.###a#b#c#d#e``",
"``#f#g#h#i#j#k#l###m#n#o#p#q````",
"``#r#s#t#u#v#w#x#y#z#A#B#C`K````",
"``#D#E#F#G#H#I#J#K#L#M#N#O`K````",
"``#P#Q#R#S#T#U#V#W#X#Y#Z#0#1````",
"``#2#3#4#5#6#7#8a`a.a#aaabac````",
"``adaeafagahaiajakalamanao``````"
};
