/* XPM */
static const char *const bookadd_xpm[] = {
/* width height num_colors chars_per_pixel */
"16 16 201 2",
/* colors */
"`` c None",
"`. c #e0e6ee",
"`# c #6884ac",
"`a c #738eb3",
"`b c #4b6c9d",
"`c c #4a6c9c",
"`d c #496b9c",
"`e c #496a9b",
"`f c #486a9b",
"`g c #47699a",
"`h c #466899",
"`i c #456798",
"`j c #436493",
"`k c #567193",
"`l c #99abc7",
"`m c #4b6d9d",
"`n c #7897bb",
"`o c #6282ac",
"`p c #6181ac",
"`q c #6080ab",
"`r c #5f7fab",
"`s c #5e7faa",
"`t c #5d7ea8",
"`u c #5c7ca8",
"`v c #4c6d9d",
"`w c #436697",
"`x c #3c5c88",
"`y c #6c88af",
"`z c #7897ba",
"`A c #b9c5d8",
"`B c #d7dee8",
"`C c #d6dde7",
"`D c #d6dce6",
"`E c #d4dbe4",
"`F c #d3dae3",
"`G c #d1d8e2",
"`H c #d0d7e1",
"`I c #e5e7eb",
"`J c #efefef",
"`K c #2a3e57",
"`L c #607da8",
"`M c #a5c2d9",
"`N c #7091b5",
"`O c #5f80ab",
"`P c #5e7ea9",
"`Q c #5c7da8",
"`R c #5b7ca8",
"`S c #5a7ba7",
"`T c #5979a6",
"`U c #416496",
"`V c #5f7ca7",
"`W c #a9c8dd",
"`X c #95bdd4",
"`Y c #b9d4e6",
"`Z c #b6d1e6",
"`0 c #b5d0e4",
"`1 c #b3cee3",
"`2 c #b0cbe2",
"`3 c #adc9e0",
"`4 c #a9c7df",
"`5 c #a0bfda",
"`6 c #4a6b9a",
"`7 c #5e7ba6",
"`8 c #a6c5db",
".` c #76a7c6",
".. c #9bbfd9",
".# c #93b7d1",
".a c #8eb0cb",
".b c #8aaeca",
".c c #87abc8",
".d c #83abcb",
".e c #87b0d1",
".f c #9bbbd8",
".g c #486a99",
".h c #5d7ba6",
".i c #a4c2d9",
".j c #72a4c1",
".k c #94b8d2",
".l c #e4edf5",
".m c #e2ecf4",
".n c #e1ecf4",
".o c #e0ebf4",
".p c #dfeaf3",
".q c #7fa9cb",
".r c #96b8d6",
".s c #476999",
".t c #5c7aa5",
".u c #9fbfd7",
".v c #6f9fbd",
".w c #90b5d4",
".x c #88adcb",
".y c #81a8c7",
".z c #7da5c6",
".A c #7aa1c4",
".B c #76a1c5",
".C c #7ba7cb",
".D c #90b4d4",
".E c #466898",
".F c #5b79a5",
".G c #9bbbd5",
".H c #699ab8",
".I c #8ab3d4",
".J c #87afd2",
".K c #82add0",
".L c #7daacf",
".M c #78a6cd",
".N c #74a4cb",
".O c #75a4cc",
".P c #8ab1d2",
".Q c #456797",
".R c #5a78a5",
".S c #96b7d2",
".T c #6592b4",
".U c #83aed1",
".V c #7fabcf",
".W c #7aa8cd",
".X c #76a5cb",
".Y c #71a2ca",
".Z c #6d9ec8",
".0 c #6e9a92",
".1 c #6f955e",
".2 c #668e4f",
".3 c #578041",
".4 c #a6bd99",
".5 c #5a78a4",
".6 c #92b4d0",
".7 c #608baf",
".8 c #7ca9ce",
"#` c #77a6cc",
"#. c #74a3cb",
"## c #6ea0c9",
"#a c #6a9dc7",
"#b c #67948b",
"#c c #81ab61",
"#d c #b4d495",
"#e c #d0e6ba",
"#f c #8fbb6a",
"#g c #578f2d",
"#h c #91ad80",
"#i c #5977a3",
"#j c #8eb0ce",
"#k c #5b85aa",
"#l c #75a4cb",
"#m c #6b9ec8",
"#n c #689bc6",
"#o c #6399c5",
"#p c #5d8748",
"#q c #b1d390",
"#r c #b1d692",
"#s c #8cbc65",
"#t c #8fbc67",
"#u c #3d6f20",
"#v c #5776a2",
"#w c #88accb",
"#x c #577ea6",
"#y c #6e9fc9",
"#z c #699dc7",
"#A c #6699c6",
"#B c #6197c3",
"#C c #5c92c2",
"#D c #4c7b31",
"#E c #b6d49c",
"#F c #b2d295",
"#G c #376b19",
"#H c #5675a2",
"#I c #85a9ca",
"#J c #5478a3",
"#K c #679ac6",
"#L c #6298c4",
"#M c #5e94c2",
"#N c #5a90c1",
"#O c #568cc0",
"#P c #3a6d20",
"#Q c #8bba62",
"#R c #87ba60",
"#S c #87b960",
"#T c #5574a1",
"#U c #85abcc",
"#V c #89afd1",
"#W c #88b0d2",
"#X c #85add1",
"#Y c #81aad0",
"#Z c #7fa7cf",
"#0 c #7ba4ce",
"#1 c #578570",
"#2 c #538c28",
"#3 c #8dba64",
"#4 c #889ebd",
"#5 c #3d6094",
"#6 c #3c6093",
"#7 c #3b5f92",
"#8 c #3a5e92",
"a` c #395d91",
"a. c #385d90",
"a# c #385c90",
"aa c #375b8f",
"ab c #376350",
"ac c #376a1f",
"ad c #417224",
"ae c #94b084",
"af c #000000",
/* pixels */
"```.`#`a`b`c`d`e`f`g`h`i`j`k````",
"```l`m`n`o`p`q`r`s`t`u`v`w`x````",
"```y`z`A`B`C`D`E`F`G`H`I`J`K````",
"```L`M`N`O`P`P`Q`R`S`T`d`U`K````",
"```V`W`X`Y`Z`0`1`2`3`4`5`6`K````",
"```7`8.`...#.a.b.c.d.e.f.g`K````",
"``.h.i.j.k.l.m.n.o.p.q.r.s`K````",
"``.t.u.v.w.x.y.z.A.B.C.D.E`K````",
"``.F.G.H.I.J.K.L.M.N.O.P.Q`K````",
"``.R.S.T.U.V.W.X.Y.Z.0.1.2.3.4``",
"``.5.6.7.8#`#.###a#b#c#d#e#f#g#h",
"``#i#j#k#l.Y#m#n#o#p#q#r``#s#t#u",
"``#v#w#x#y#z#A#B#C#D#E``````#F#G",
"``#H#I#J#K#L#M#N#O#P#Q#R``#S#t#u",
"``#T#U#V#W#X#Y#Z#0#1#2#3#F#3#2#h",
"``#4#5#6#7#8a`a.a#aaabac#Gadae``"
};
