/* XPM */
static const char *const delete_xpm[] = {
/* width height num_colors chars_per_pixel */
"16 16 54 2",
/* colors */
"`` c None",
"`. c #d72020",
"`# c #d64343",
"`a c #d01918",
"`b c #3085fd",
"`c c #3186ff",
"`d c #238eff",
"`e c #cc140a",
"`f c #dd2f2f",
"`g c #c70302",
"`h c #a70000",
"`i c #c20000",
"`j c #a50000",
"`k c #eac5c5",
"`l c #d9665f",
"`m c #f9f4f4",
"`n c #de8e8b",
"`o c #db7975",
"`p c #c94337",
"`q c #ea7477",
"`r c #c65c53",
"`s c #bb817e",
"`t c #e26d69",
"`u c #e97f78",
"`v c #dba5a5",
"`w c #f5eded",
"`x c #c34b3b",
"`y c #cd4141",
"`z c #cc605a",
"`A c #cf594f",
"`B c #d18783",
"`C c #c4827d",
"`D c #c92318",
"`E c #ba0000",
"`F c #b83522",
"`G c #fafafa",
"`H c #ca908d",
"`I c #df1b13",
"`J c #d21b17",
"`K c #8c392d",
"`L c #ee0101",
"`M c #be4239",
"`N c #f7f0f0",
"`O c #ba5c57",
"`P c #f2302e",
"`Q c #a68c8a",
"`R c #f3f3f3",
"`S c #ad413d",
"`T c #e23532",
"`U c #e3caca",
"`V c #c5a5a2",
"`W c #efe8e8",
"`X c #ebcece",
"`Y c #000000",
/* pixels */
"````````````````````````````````",
"````````````````````````````````",
"````````````````````````````````",
"````````````````````````````````",
"````````````````````````````````",
"````````````````````````````````",
"`````````````.`#`a``````````````",
"```b`c`c`c`d`e`f`g`d`c`c`c`c````",
"`````````````h`i`j``````````````",
"```````````````````k`l`m```n`o``",
"```````````````````p`q`r`s`t`u`v",
"```````````````````w`x`y`z`A`B``",
"`````````````````````C`D`E`F`G``",
"```````````````````H`I`J`K`L`M`N",
"```````````````````O`P`Q`R`S`T`U",
"`````````````````````V`````W`X``"
};
