/* XPM */
static const char *const gnomeblog[] = {
/* width height num_colors chars_per_pixel */
"32 32 216 2",
/* colors */
"`` c #3466a4",
"`. c #94b2d4",
"`# c #ac5e24",
"`a c #ac8a5c",
"`b c #dcdedc",
"`c c #ec8a1c",
"`d c #ccb64c",
"`e c #dc9254",
"`f c #dccab4",
"`g c #648ebc",
"`h c #fcc674",
"`i c #dca64c",
"`j c #f4b654",
"`k c #6c666c",
"`l c #d46204",
"`m c #f4b674",
"`n c #f48a14",
"`o c #4c7aac",
"`p c #eceee4",
"`q c #d47624",
"`r c #e4a26c",
"`s c #fcbe5c",
"`t c #f49624",
"`u c #a48a6c",
"`v c #f47a04",
"`w c #4c6a94",
"`x c #7ca6cc",
"`y c #fc9e24",
"`z c #fcdaa4",
"`A c #ecbe9c",
"`B c #f4b264",
"`C c #f4aa5c",
"`D c #fcce8c",
"`E c #fcaa34",
"`F c #f4be7c",
"`G c #f4fafc",
"`H c #e48214",
"`I c #dc9a44",
"`J c #dcaa7c",
"`K c #9ca2a4",
"`L c #a47654",
"`M c #f4c694",
"`N c #5c86b4",
"`O c #f4963c",
"`P c #4c729c",
"`Q c #fcce9c",
"`R c #f4922c",
"`S c #94a6ac",
"`T c #f4dacc",
"`U c #fcba5c",
"`V c #a4bedc",
"`W c #949ea4",
"`X c #7c827c",
"`Y c #5c7ea4",
"`Z c #fcf2ec",
"`0 c #fca63c",
"`1 c #fcd69c",
"`2 c #446ea7",
"`3 c #bca21c",
"`4 c #dc8e4c",
"`5 c #749ac8",
"`6 c #d46e16",
"`7 c #f48a24",
"`8 c #f4f6f4",
".` c #e47a14",
".. c #ecaa68",
".# c #fc9624",
".a c #fcbe78",
".b c #54769c",
".c c #ecead4",
".d c #fcc684",
".e c #fcb244",
".f c #ecba94",
".g c #547aac",
".h c #f4eee4",
".i c #b49674",
".j c #ec861c",
".k c #fca634",
".l c #fcb25c",
".m c #fcaa44",
".n c #dc8237",
".o c #b49e84",
".p c #c4762c",
".q c #8caad0",
".r c #9cbadc",
".s c #cc5e04",
".t c #ecdad0",
".u c #e4b284",
".v c #e49e58",
".w c #ccd6d4",
".x c #f4ba84",
".y c #fcbe6c",
".z c #fca234",
".A c #fce2bc",
".B c #fcfafc",
".C c #ec9a2c",
".D c #dcae7c",
".E c #ac865c",
".F c #fcca8f",
".G c #4c76ac",
".H c #f4ceb4",
".I c #f4e2d4",
".J c #6c829c",
".K c #fc9a2c",
".L c #fcc278",
".M c #fcb254",
".N c #fcb66c",
".O c #94aacc",
".P c #446694",
".Q c #8c8274",
".R c #946a3c",
".S c #bc9a5c",
".T c #ac7244",
".U c #ccaa14",
".V c #7c8a9c",
".W c #b4a694",
".X c #7496c4",
".Y c #acaaa4",
".Z c #eccaac",
".0 c #dcd6bc",
".1 c #b47648",
".2 c #eca24c",
".3 c #dc7e30",
".4 c #6c96c4",
".5 c #acc6e4",
".6 c #d46a14",
".7 c #6c8aac",
".8 c #eca660",
"#` c #f4820c",
"#. c #ac8a64",
"## c #84a6cc",
"#a c #fcaa54",
"#b c #e4964c",
"#c c #e4a674",
"#d c #648abc",
"#e c #acc2e4",
"#f c #c4a624",
"#g c #e48e44",
"#h c #7c9ec4",
"#i c #dc7214",
"#j c #c49654",
"#k c #3c6aa4",
"#l c #ec8e2c",
"#m c #fcdeb4",
"#n c #f49a44",
"#o c #f4f2f4",
"#p c #bcaa94",
"#q c #d4b644",
"#r c #e4ae84",
"#s c #fc922c",
"#t c #fcba6c",
"#u c #fca64c",
"#v c #fcd6ac",
"#w c #5476ac",
"#x c #ccd6e4",
"#y c #94b6dc",
"#z c #fcca7c",
"#A c #d4660c",
"#B c #f4ba78",
"#C c #f48e1c",
"#D c #f49a2c",
"#E c #f47e0c",
"#F c #4c6e98",
"#G c #fca22c",
"#H c #fcdeac",
"#I c #fcd294",
"#J c #fcae3c",
"#K c #f4c284",
"#L c #f4ca8c",
"#M c #f49a34",
"#N c #4c76a4",
"#O c #fcd2a2",
"#P c #4472ac",
"#Q c #f48e29",
"#R c #e47e16",
"#S c #ecae6c",
"#T c #fc9a23",
"#U c #fcb64c",
"#V c #547eaf",
"#W c #f4f2ec",
"#X c #fcb65f",
"#Y c #dc8634",
"#Z c #8caed4",
"#0 c #ecded4",
"#1 c #e4b68c",
"#2 c #fcfefc",
"#3 c #f48614",
"#4 c #84aad4",
"#5 c #f4decc",
"#6 c #dc924c",
"#7 c #fcca84",
"#8 c #b49a74",
"a` c #fcae44",
"a. c #cc6204",
"a# c #fcc26c",
"aa c #f4e6d4",
"ab c #fcb654",
"ac c #ac8e64",
"ad c #fcae54",
"ae c #e49a4c",
"af c #94b2dc",
"ag c #ec8a24",
"ah c #dc925c",
"ai c #fcc67c",
"aj c #f48a1c",
"ak c #4c7ab4",
"al c #eceeec",
"am c #fcbe64",
"an c #fc9e2c",
"ao c #fcce94",
"ap c #fcaa3c",
"aq c #e4821c",
"ar c #4c72a4",
"as c #fcba64",
"at c #5c7eac",
"au c #fcd6a4",
/* pixels */
"#2#2#2#2#2#2#2#2#2#2#2#2#2#2#2#2#2#2#2#2#2#2#2#2#2#2#2#2#2#2#2#2",
"#2#2#2#2#2#2#2#2#2#2#2#2#2#2#2#2#2#2#2#2#2#2#2#2#2#2#2#2#2#2#2#2",
"#2#2#2#2#2#2#2#2#2#2#2#2#2#2#2#2#2#2#2#2#2#2#2#2#2#2#2#2#2#2#2#2",
"#2#2#2#2#2#2#2#2#2#2#2#2#2#2#2#2#2#2#2#2#2#2#2#2#2#2#2#2#2#2#2#2",
"#2#2#2#2#2`r#A`l.s.s.s.s.s.s.s.s.s.s.s.s.s.s.s.s.s.s.s#i#r#2#2#2",
"#2#2#2#2#5`6.F`z#m`z`z#m`z`z#m`z`z#m`z`z#m`z`z#m`z`z#m.d`6aa#2#2",
"#2#2#2#2`4..aia`#Ja`a`#J.ea`#Ja`a`#J.ea`#Ja`a`#J.ea`#J`Dae.f#2#2",
"#2#2#P#d.1.x`U#J.e#J.e#J#U#z#I#H`z#I#z#U#J.e#J#J#J#Jap`h..#c#2#2",
"#2#2#d#d#V.V`ja`#J#J.e`h`zadaj#E`v#`#Q.N.L#J#Japapap`Eam`m#b#2#2",
"#2#2#x`N#e#h.b`i#J#J#z#7#``7#B`Q#m#O.a#Q`7`Bap`E`Eap`Eab#K.3#2#2",
"#2#2`G#P.X.5`.ar#jam`1#``C.A`z`sa`#Ua#.A`m#Q.2`E`E.k.ka``Q`6#2#2",
"#2#2.B#k`w.q.r`V#V.W#M#n.A`habap`Ea`.y.F.A#a`O#D.k.k.k`0au.s#2#2",
"#2#2#2.O`k.G#y#Z`V#V`L.F.yap.k.k#G`j#t#X#7au#Q`c.k.k.z.k#O`6`Z#2",
"#2#2#2#0.P`K#V#y#Z`Vak`Wai.L.ean#D`0#X.yas#v#`#R.z#G#G#G#L.n#5#2",
"#2#2#2.H.T#F`X#V#y#y##`2.o.L#t#T#T.z.M.L`Daoaj#R#G.z#D#G#K#g.Z#2",
"#2#2#2.f#Y#p``#Fak##`N`5ak.i`B#T`t#T`t`U#m#u`R.j#D#G#G#Da#.v.f#2",
"#2#2#2#c#g#7`u``.Q#k.4#4#Z.g#8ap.k`E#U`1#taj#R`t#D#D#G#D#X.8#c#2",
"#2#2#2ahae.L.k.Q#jac.g#4#4#Zak.W`z`D.y`Raj.j.j`yan#D`y#Ta``m`4#2",
"#2#2#2.n.8.y.k.k`I.z`a`o#4#4`..G.1`n#Qaj.`.j#D#T#D`y#D#T.2.a.3#2",
"#2#2#2`q`B#t.z.z#G.z#G.E`o#4#4`.ar.p#R.j`t`y#T#D#T.#`t.#an.F.6#2",
"#2#2#2.6`m`j.z#G#G#D#G#D`a.g#4#4#4`P.C#T#T#D.##T`t.#`t.##D#O.s#2",
"#2#2#2#A`F#vau#v`z`z#vauau.Y.G`x.r`5.J#Oau#O#O#O`1#O#O#I`Q#B#A#2",
"#2#2#2`l#i`l.s.s.s.s.s.s.s.s`#`w.4.r#P.R.s.s.s.s.s.s.s.s.s`l`A#2",
"#2#2#2.s.n`f`b`b`b`b`b`b`b`b`b.w`Y#N.J`3.0`b`b`b`b`b`b`b.D.f#2#2",
"#2#2.B.s.tal`pal`p`p`p`p`pal`palal`S`3#f`d`pal`p`p`p`p.h#R#r#2#2",
"#2#2.B`l.h#o`8`8`8#o`8`Z`8`Z`8`8`8`8.c#q.U#o`8`8`Z`8`8#oag`r#2#2",
"#2.B`8`4.v.I`Z#o`Z#o#o#o#o#o`Z#o`Z#o#W#o#W#W#W`Z#o`8`Z#o`M`4`8#2",
"#2.B#o.taha..s.s.s.s.s.s.s.s.s.s.s.s.s.s.s.s.s.s.s.s.s.s.s`J#o.B",
"#2#2`8alalal#oal.h.h.h.h.hal.h.hal.h.h.h.h.hal#o.hal#oalal#o`8#2",
"#2#2#2.B.B.B.B.B.B`8.B`G.B.B.B`8.B.B`8.B`G.B.B.B`8.B.B`Z`G.B#2#2",
"#2#2#2#2#2#2#2#2#2#2#2#2#2#2#2#2#2#2#2#2#2#2#2#2#2#2#2#2#2#2#2#2",
"#2#2#2#2#2#2#2#2#2#2#2#2#2#2#2#2#2#2#2#2#2#2#2#2#2#2#2#2#2#2#2#2"
};
