/* XPM */
static const char *const reload_xpm[] = {
"16 16 93 2",
"  	c None",
". 	c #81A2CA",
"+ 	c #99B6D7",
"@ 	c #A0BBDA",
"# 	c #9CB8D9",
"$ 	c #8FAFD3",
"% 	c #7B9EC8",
"& 	c #94B1D4",
"* 	c #B7CDE5",
"= 	c #B6CCE5",
"- 	c #B3CAE4",
"; 	c #B2CAE5",
"> 	c #AFC9E4",
", 	c #A8C3E1",
"' 	c #98B6D8",
") 	c #779BC7",
"! 	c #6A92C2",
"~ 	c #7E9FC9",
"{ 	c #9AB6D7",
"] 	c #7297C4",
"^ 	c #648BBC",
"/ 	c #779AC5",
"( 	c #89A9CF",
"_ 	c #98B6D7",
": 	c #A1BEDE",
"< 	c #97B8DC",
"[ 	c #85ABD4",
"} 	c #7AA1CD",
"| 	c #7EA4CF",
"1 	c #7095C2",
"2 	c #5C86BB",
"3 	c #4573B0",
"4 	c #6E95C3",
"5 	c #7DA4CE",
"6 	c #7CA6D2",
"7 	c #76A2D1",
"8 	c #79A2CF",
"9 	c #4E7BB4",
"0 	c #648EC4",
"a 	c #6890C0",
"b 	c #7EA7D2",
"c 	c #73A0CF",
"d 	c #7AA2CF",
"e 	c #7DA2CD",
"f 	c #7DA4D0",
"g 	c #7DA3CE",
"h 	c #688EBE",
"i 	c #7C9FC9",
"j 	c #7B9EC9",
"k 	c #5C85B9",
"l 	c #8CACD1",
"m 	c #9DBCDD",
"n 	c #9CBBDD",
"o 	c #93B3D6",
"p 	c #8BACD2",
"q 	c #9ABADD",
"r 	c #9ABBDD",
"s 	c #85A7CF",
"t 	c #4F7DB5",
"u 	c #9DBDDE",
"v 	c #98B9DC",
"w 	c #8CB0D7",
"x 	c #709BCA",
"y 	c #5987BC",
"z 	c #7FA5D2",
"A 	c #7A9FCB",
"B 	c #4B7FB9",
"C 	c #8AAAD0",
"D 	c #81A3CA",
"E 	c #7EA2CC",
"F 	c #739FCF",
"G 	c #6999CC",
"H 	c #6797CA",
"I 	c #6191C6",
"J 	c #5889C0",
"K 	c #5385BF",
"L 	c #598BC2",
"M 	c #5388C2",
"N 	c #467AB5",
"O 	c #5E84B4",
"P 	c #567FAE",
"Q 	c #6491C4",
"R 	c #6495C9",
"S 	c #6194CA",
"T 	c #5E92C9",
"U 	c #5A8FC8",
"V 	c #5389C3",
"W 	c #467AB3",
"X 	c #436A98",
"Y 	c #4B78AA",
"Z 	c #4B7AAF",
"` 	c #4574AA",
" .	c #386395",
"                                ",
"        . + @ # $ %             ",
"      & * = - ; > , ' )   !     ",
"    ~ { ] ^ / ( _ : < [ } |     ",
"    1 2 3         4 5 6 7 8     ",
"    9 0             a b c d     ",
"                    e f d g     ",
"    h i j i k                   ",
"    l m n o                     ",
"    p q r s               t     ",
"    p u v w x y       z A B     ",
"    C D E F G H I J K L M N     ",
"    O     P Q R S T U V W       ",
"              X Y Z `  .        ",
"                                ",
"                                "};
