/* XPM */
static const char *const search_xpm[] = {
/* width height num_colors chars_per_pixel */
"    16    16       32            1",
/* colors */
"` c #9a6511",
". c #a1b4c6",
"# c #d8dedf",
"a c #ccb28c",
"b c #eaeff1",
"c c #b8c4cd",
"d c #ac8a54",
"e c #b4b5b3",
"f c #f4e2c4",
"g c #cbccc8",
"h c #bc9b69",
"i c #e1e8f1",
"j c none",
"k c #abbcca",
"l c #c4cad4",
"m c #ac7e34",
"n c #f4f4f5",
"o c #99adc4",
"p c #c0ab86",
"q c #dcae64",
"r c #c17d14",
"s c #dfb674",
"t c #a4721c",
"u c #bcccd8",
"v c #acaeac",
"w c #bbbcbc",
"x c #cfd5d8",
"y c #eceaeb",
"z c #acb2ac",
"A c #e4e2df",
"B c #d4d2cc",
"C c #ccae84",
/* pixels */
"jjjbgwzwgbjjjjjj",
"jjxegB#BBexjjjjj",
"jBw#woo.cywBjjjj",
"ne#o.xi#cknenjjj",
"glw.ibbbiux#ljjj",
"wBoubnjbbikiwjjj",
"zAoibnnbbikbejjj",
"w#.ubbbbbik#wjjj",
"gxckiibiikuxgjjj",
"ben.k#i#kkizpjjj",
"jxwnu..ku#wgmCjj",
"jj#ex#i#lzhsfmCj",
"jjjylwzwgp`rqfma",
"jjnyyybyyyp`rqst",
"jnnyynjnbynp`rtd",
"jjjnnyynnnyAh`dn"
};
